Coordinates
version=1
nRows=11
nColumns=42
inDegrees=yes

Units are S.I. units (second, meters, Newtons, ...)
If the header above contains a line with 'inDegrees', this indicates whether rotational values are in degrees (yes) or radians (no).

endheader
time	pelvis_tilt	pelvis_list	pelvis_rotation	pelvis_tx	pelvis_ty	pelvis_tz	hip_flexion_r	hip_adduction_r	hip_rotation_r	knee_angle_r	knee_adduction_r	knee_angle_r_beta	ankle_angle_r	subtalar_angle_r	mtp_angle_r	hip_flexion_l	hip_adduction_l	hip_rotation_l	knee_angle_l	knee_adduction_l	knee_angle_l_beta	ankle_angle_l	subtalar_angle_l	mtp_angle_l	lumbar_extension	lumbar_bending	lumbar_rotation	arm_flex_r	arm_add_r	arm_rot_r	elbow_flex_r	pro_sup_r	wrist_flex_r	wrist_dev_r	arm_flex_l	arm_add_l	arm_rot_l	elbow_flex_l	pro_sup_l	wrist_flex_l	wrist_dev_l
      0.00000000	     12.36689571	      5.70686347	     -4.43393440	     -1.94060877	      0.96906564	      0.23808868	     -9.41164781	    -10.95555894	    -15.14188306	     60.00442870	    -10.11962207	      1.04727485	      6.73591669	     -4.07064896	     -9.35368650	     -0.54355664	      7.47150858	    -19.50795863	     15.76751652	     -2.86074730	      0.27519508	     14.07585427	     23.01501316	     -9.35368650	    -27.66750397	     -6.38645542	     -2.22439715	     -2.52347217	     -8.25935265	      6.21190088	     30.93365497	     90.00000001	      0.00000000	      0.00000000	     -4.70227334	     -9.73933998	     -4.97096741	     34.74625994	     90.00000001	      0.00000000	      0.00000000
      0.01000000	     12.35853659	      5.59103919	     -4.18708415	     -1.93457899	      0.97023228	      0.23731800	     -8.64665770	    -10.75629266	    -15.16119541	     60.11595786	    -10.01904383	      1.04922140	      6.90339277	     -3.96837685	     -9.34034391	     -1.02033357	      7.39595759	    -19.59389409	     15.66183241	     -2.85580059	      0.27335054	     14.10808400	     22.91319876	     -9.34034391	    -27.72445690	     -6.10230751	     -2.45190559	     -2.64282796	     -8.24096630	      6.20993656	     30.94728576	     90.00000001	      0.00000000	      0.00000000	     -4.29711422	     -9.90657891	     -4.96649630	     34.96151657	     90.00000001	      0.00000000	      0.00000000
      0.02000000	     12.27245557	      5.14788937	     -4.13535342	     -1.92647513	      0.97167315	      0.23678286	     -7.44407507	    -10.11802281	    -15.21323965	     60.20063567	    -10.25746932	      1.05069930	      8.01469142	     -3.87875669	     -9.31540010	     -1.94369244	      7.10610850	    -19.15680651	     14.73311404	     -2.78087763	      0.25714135	     14.41739150	     23.40111769	     -9.31540010	    -27.66088728	     -5.51160524	     -2.42875612	     -2.69293150	     -8.24996979	      6.19146896	     30.73648058	     90.00000001	      0.00000000	      0.00000000	     -3.85814688	    -10.05090127	     -4.86074141	     35.15278203	     90.00000001	      0.00000000	      0.00000000
      0.03000000	     12.25417504	      4.76537016	     -3.90226881	     -1.91643065	      0.97341690	      0.23585644	     -6.19450859	     -9.53947009	    -15.30580811	     60.11820139	    -10.28567684	      1.04926055	      8.98016599	     -3.47248933	     -9.28791246	     -3.03280692	      6.83859969	    -18.82601816	     13.91634572	     -2.65602718	      0.24288605	     14.67958602	     23.75463382	     -9.28791246	    -27.68836915	     -4.90139918	     -2.59591380	     -2.83907574	     -8.23642358	      6.12795679	     30.60881818	     90.00000001	      0.00000000	      0.00000000	     -3.29972406	    -10.27671303	     -4.75374659	     35.45601324	     90.00000001	      0.00000000	      0.00000000
      0.04000000	     12.18474852	      4.37981097	     -3.59614199	     -1.90486066	      0.97517375	      0.23467207	     -4.70660907	     -8.99489462	    -15.46049557	     59.94629480	    -10.18774639	      1.04626022	      9.83154407	     -3.08916422	     -9.26493483	     -4.14290207	      6.56731135	    -18.70498535	     13.12666783	     -2.57691825	      0.22910357	     14.88945412	     23.94719399	     -9.26493483	    -27.65863582	     -4.23254417	     -2.86114973	     -3.02295370	     -8.22498048	      6.06163533	     30.52918501	     90.00000001	      0.00000000	      0.00000000	     -2.69851111	    -10.53572245	     -4.68326728	     35.85593741	     90.00000001	      0.00000000	      0.00000000
      0.05000000	     12.60117536	      3.90064032	     -3.29280692	     -1.89136670	      0.97771328	      0.23379685	     -3.90488001	     -8.27109425	    -16.11429264	     59.00482193	    -10.44174827	      1.02982842	     11.45778340	     -1.07118774	     -9.18636451	     -6.30382707	      6.23000979	    -17.75636398	     11.61228816	     -2.22851910	      0.20267266	     15.06278561	     24.33858090	     -9.18636451	    -28.08301426	     -3.52343281	     -3.05954304	     -3.30367618	     -8.12403422	      5.68711901	     30.43517849	     90.00000001	      0.00000000	      0.00000000	     -2.06201527	    -10.92169703	     -4.39200640	     36.41871095	     90.00000001	      0.00000000	      0.00000000
      0.06000000	     12.28251821	      3.48736063	     -3.04281165	     -1.87805806	      0.97897051	      0.23279513	     -1.91883565	     -7.60045513	    -16.20438652	     58.39924368	    -10.31364848	      1.01925908	     12.47480791	     -0.77909617	     -9.15552502	     -7.35426198	      5.89573540	    -17.40722777	     10.62413325	     -2.06057014	      0.18542611	     15.29271317	     24.59104374	     -9.15552502	    -27.80017564	     -2.86546069	     -3.21109378	     -3.53888360	     -8.09417400	      5.63257858	     30.31547285	     90.00000001	      0.00000000	      0.00000000	     -1.37133608	    -11.24085406	     -4.38961460	     37.02442463	     90.00000001	      0.00000000	      0.00000000
      0.07000000	     12.43705495	      3.03060247	     -2.70848671	     -1.86339454	      0.98074893	      0.23175108	     -0.71922831	     -6.92376374	    -16.66647313	     57.09532687	    -10.18051970	      0.99650144	     13.62214432	      0.44833104	     -9.06662456	     -9.27015904	      5.53490849	    -16.64288622	      9.12929774	     -1.74996286	      0.15933630	     15.31748762	     24.54757522	     -9.06662456	    -27.92415726	     -2.14215238	     -3.45829360	     -3.86510553	     -8.00756316	      5.32633960	     30.26861743	     90.00000001	      0.00000000	      0.00000000	     -0.75681362	    -11.59672507	     -4.32299464	     37.72306830	     90.00000001	      0.00000000	      0.00000000
      0.08000000	     12.02385004	      2.68468599	     -2.48670037	     -1.84930262	      0.98132507	      0.23074598	      1.30821402	     -6.34494746	    -16.63036073	     55.90912630	     -9.75137213	      0.97579834	     14.47767010	      0.58345932	     -9.03902093	    -10.25415079	      5.28117727	    -16.43248362	      8.11695111	     -1.67006712	      0.14166752	     15.57371099	     24.87273026	     -9.03902093	    -27.50874234	     -1.56235434	     -3.62787745	     -4.12807405	     -7.96506683	      5.26331339	     30.17733376	     90.00000001	      0.00000000	      0.00000000	     -0.10960034	    -11.92015811	     -4.36527772	     38.46640261	     90.00000001	      0.00000000	      0.00000000
      0.09000000	     12.11440494	      2.27482602	     -2.21208241	     -1.83441613	      0.98235910	      0.22982938	      2.42928215	     -5.70672346	    -16.67099474	     54.00992631	     -9.14757098	      0.94265104	     15.25495522	      1.04588671	     -8.98573670	    -12.04504500	      4.92404754	    -16.08798141	      6.72311090	     -1.43137571	      0.11734042	     15.68502845	     25.29475777	     -8.98573670	    -27.56328540	     -0.91533577	     -3.84419117	     -4.45055750	     -7.90816445	      5.00075448	     30.14924008	     90.00000001	      0.00000000	      0.00000000	      0.47042957	    -12.25925871	     -4.41377582	     39.25590518	     90.00000001	      0.00000000	      0.00000000
      0.10000000	     11.69256550	      2.04129330	     -2.04346548	     -1.82011939	      0.98214472	      0.22901483	      4.26463633	     -5.24079247	    -16.63727033	     52.18360050	     -8.62374667	      0.91077564	     15.87152521	      1.08042638	     -8.95709994	    -13.03337454	      4.74413222	    -15.98533640	      5.71194164	     -1.28022306	      0.09969219	     15.90972401	     25.67503281	     -8.95709994	    -27.09572198	     -0.49347179	     -3.99364824	     -4.76335037	     -7.84697362	      4.90451858	     30.08975999	     90.00000001	      0.00000000	      0.00000000	      1.02767163	    -12.60313212	     -4.47540194	     40.13750509	     90.00000001	      0.00000000	      0.00000000
